<svg xmlns="http://www.w3.org/2000/svg" width="9" height="14" viewBox="0 0 9 14">
  <path fill="#7DCE94" stroke="#7DCE94" d="M6.57374545,0.36238961 C6.32014011,0.133021012 5.92233262,0.133021012 5.66872727,0.36238961 L0.375236364,5.22777489 C0.135774263,5.44451149 0.000199918392,5.7453454 0.000199918392,6.05996537 C0.000199918392,6.37458534 0.135774263,6.67541924 0.375236364,6.89215584 L5.70705455,11.7934545 C5.95432727,12.0201212 6.35490909,12.0230649 6.60589091,11.799342 C6.72871651,11.6916048 6.79910775,11.5401671 6.80027953,11.38114 C6.80145131,11.2221129 6.7332986,11.0697493 6.61207273,10.960381 L1.73276364,6.47591342 C1.61293371,6.36753645 1.54508273,6.21705523 1.54508273,6.059671 C1.54508273,5.90228677 1.61293371,5.75180554 1.73276364,5.64342857 L6.57312727,1.19428571 C6.6929234,1.08601214 6.76076228,0.935627358 6.76076228,0.778337662 C6.76076228,0.621047967 6.6929234,0.470663183 6.57312727,0.36238961" transform="translate(1 1)"/>
</svg>
