<svg xmlns="http://www.w3.org/2000/svg" width="14" height="28" viewBox="0 0 14 28">
  <path fill="#9B9B9B" d="M22.7950826,1.43207472 C20.8833338,-0.4607149 19.5715468,-0.477093441 17.6508058,1.38222699 C15.8055996,-0.375617699 14.7927144,-0.324701801 12.9237686,1.52536119 L2.53198422,11.4564538 C2.48712177,11.5007499 2.44830571,11.5506651 2.41652394,11.6049288 L1.4101132,12.566634 C-0.697666278,14.6527616 -0.271794111,15.7476315 1.56118271,17.562445 L6.13930851,22.0936039 C7.07450076,23.0197035 7.77661434,23.570877 8.59382849,23.570877 L8.62835867,23.570877 C9.45600382,23.570877 10.1545205,23.0428471 11.0656136,22.1402471 L21.4581174,12.2109348 C21.504877,12.1664279 21.5408459,12.1158681 21.5728583,12.0635279 L22.5799884,11.1014667 C23.4615869,10.2284193 24.0370899,9.46183235 23.9781008,8.55709601 C23.9302621,7.82931911 23.488204,7.1962529 22.7342951,6.41435561 C24.4446179,4.69532094 24.8730079,3.48936186 22.7950826,1.43207472 Z M21.7775215,2.43899892 C23.0795969,3.72827493 23.092186,4.03412637 21.7210503,5.40458297 L18.6701654,2.38452247 C20.0150438,1.07210288 20.4204137,1.09595858 21.7775215,2.43899892 Z M21.5724986,10.0859972 L11.1796351,20.0170898 C11.1351474,20.0606556 11.0966858,20.1098632 11.0652539,20.1634285 L10.0574044,21.1265579 C9.54232926,21.636785 8.95567596,22.1516409 8.61972613,22.1502167 C8.27046779,22.1445198 7.68417418,21.6097248 7.15686962,21.0881039 L2.57838414,16.5562329 C1.10006099,15.0921338 1.09034938,14.8970155 2.41832239,13.5821035 L12.8104665,3.65101094 C12.8575858,3.60614798 12.8939144,3.55523208 12.9259268,3.50217985 L13.9323375,2.54083072 C15.3239755,1.16325302 15.4049056,1.16574541 16.8328723,2.57964074 L21.4113578,7.11186781 C22.8900406,8.57596693 22.8997522,8.7710852 21.5724986,10.0859972 Z" transform="rotate(-46 14.264 19.58)"/>
</svg>
