<svg xmlns="http://www.w3.org/2000/svg" width="20" height="25" viewBox="0 0 20 25">
  <path fill="#9B9B9B" d="M19.4107692,17.6043391 L11.4257692,12.5433014 L19.41,7.48188226 C19.6329574,7.34153703 19.7675925,7.09743337 19.7664991,6.83552245 C19.7654056,6.57361153 19.628737,6.33062212 19.4046154,6.19211303 L9.97538462,0.322346939 C9.96115385,0.313572998 9.94576923,0.308232339 9.93115385,0.300602826 C9.904874,0.285632092 9.87763657,0.272379407 9.84961538,0.260929356 C9.82692308,0.252155416 9.80346154,0.246051805 9.78038462,0.239566719 C9.75576923,0.232318681 9.73192308,0.224689168 9.70615385,0.22011146 C9.67730769,0.214770801 9.64884615,0.213626374 9.62,0.211718995 C9.60230769,0.210574568 9.58538462,0.206378336 9.56730769,0.206378336 C9.56307692,0.206378336 9.55923077,0.207522763 9.55461538,0.207522763 C9.52538462,0.207904239 9.49692308,0.212481947 9.46769231,0.215915228 C9.44576923,0.218967033 9.42346154,0.219729984 9.40269231,0.224307692 C9.37846154,0.229648352 9.35538462,0.238803768 9.33153846,0.246051805 C9.30769231,0.254062794 9.28346154,0.259784929 9.26038462,0.269703297 C9.23807692,0.279240188 9.21769231,0.292591837 9.19615385,0.304036107 C9.17423077,0.315861852 9.15192308,0.326543171 9.13153846,0.340276295 C9.11153846,0.354009419 9.09384615,0.371175824 9.075,0.386816327 C9.05576923,0.402838305 9.03538462,0.418097331 9.01807692,0.435645212 C9.00269231,0.450904239 8.99038462,0.468833595 8.97653846,0.485618524 C8.95807692,0.508125589 8.93884615,0.529869702 8.92269231,0.554284144 C8.92038462,0.558098901 8.91730769,0.560769231 8.915,0.564202512 C8.90538462,0.579461538 8.9,0.595864992 8.89153846,0.611505495 C8.87807692,0.636682889 8.86423077,0.661478807 8.85346154,0.688182104 C8.84384615,0.712215071 8.83730769,0.737010989 8.83038462,0.761806907 C8.82384615,0.784695447 8.81653846,0.806821036 8.81230769,0.830472527 C8.80653846,0.860990581 8.805,0.891127159 8.80307692,0.921645212 C8.80192308,0.93766719 8.79807692,0.952926217 8.79807692,0.968948195 L8.79807692,10.8777786 L1.41807692,6.20012402 C1.18647263,6.05327355 0.893472849,6.0401289 0.649447753,6.16564152 C0.405422658,6.29115414 0.247445471,6.53625568 0.235024671,6.80861876 C0.222603872,7.08098184 0.357626474,7.33922804 0.589230769,7.48607849 L8.56807692,12.5429199 L0.588846154,17.6009058 C0.238177246,17.8309799 0.138416438,18.2975142 0.364736318,18.6489619 C0.591056198,19.0004096 1.05977164,19.1068177 1.41769231,18.8880047 L8.79807692,14.2095871 L8.79807692,24.2389639 C8.79807692,24.2675746 8.80346154,24.2946593 8.80653846,24.3228885 C8.80769231,24.3328069 8.80769231,24.3427253 8.80961538,24.3522622 C8.86521675,24.7249866 9.18742509,25.0012513 9.56730769,25.0019152 C9.76692308,25.0019152 9.94692308,24.9248571 10.0834615,24.801259 L19.4080769,18.8922009 C19.6303071,18.7525306 19.765206,18.5099449 19.7657516,18.2490028 C19.7662971,17.9880608 19.6324135,17.7449223 19.4107692,17.6043391 Z M10.3365385,11.4221444 L10.3365385,2.34912716 L17.5561538,6.84596232 L10.3365385,11.4221444 Z M10.3365385,22.8286484 L10.3365385,13.6636954 L17.5630769,18.2440738 L10.3365385,22.8286484 Z"/>
</svg>
