<svg xmlns="http://www.w3.org/2000/svg" width="23" height="22" viewBox="0 0 23 22">
  <g fill="#FFF" stroke="#FFF">
    <path d="M24.9207493,12 L-1.91930836,12 C-2.51585014,12 -3,11.552 -3,11 C-3,10.448 -2.51585014,10 -1.91930836,10 L24.9193084,10 C25.5158501,10 26,10.448 26,11 C26,11.552 25.5172911,12 24.9207493,12 Z" transform="rotate(-45 11.5 11)"/>
    <path d="M24.9207493,12 L-1.91930836,12 C-2.51585014,12 -3,11.552 -3,11 C-3,10.448 -2.51585014,10 -1.91930836,10 L24.9193084,10 C25.5158501,10 26,10.448 26,11 C26,11.552 25.5172911,12 24.9207493,12 Z" transform="scale(1 -1) rotate(-45 -15.056 0)"/>
  </g>
</svg>
