<svg xmlns="http://www.w3.org/2000/svg" width="12" height="7" viewBox="0 0 12 7">
  <path fill="#9B9B9B" d="M6.57354554,0.172026449 C6.31994019,-0.0573421495 5.9221327,-0.0573421495 5.66852735,0.172026449 L0.375036445,5.03741173 C0.135574345,5.25414833 5.68434189e-14,5.55498223 5.68434189e-14,5.86960221 C5.68434189e-14,6.18422218 0.135574345,6.48505608 0.375036445,6.70179268 L5.70685463,11.6030914 C5.95412735,11.8297581 6.35470917,11.8327018 6.60569099,11.6089788 C6.72851659,11.5012416 6.79890784,11.3498039 6.80007961,11.1907768 C6.80125139,11.0317497 6.73309869,10.8793861 6.61187281,10.7700178 L1.73256372,6.28555026 C1.61273379,6.17717329 1.54488282,6.02669206 1.54488282,5.86930783 C1.54488282,5.7119236 1.61273379,5.56144238 1.73256372,5.45306541 L6.57292735,1.00392255 C6.69272348,0.89564898 6.76056236,0.745264196 6.76056236,0.5879745 C6.76056236,0.430684805 6.69272348,0.280300021 6.57292735,0.172026449" transform="rotate(-90 3.5 3.5)"/>
</svg>
