<svg xmlns="http://www.w3.org/2000/svg" width="30" height="27" viewBox="0 0 30 27">
  <g fill="none" fill-rule="evenodd" stroke="#9B9B9B" stroke-linecap="round" stroke-linejoin="round" stroke-width="1.5" transform="translate(1 1)">
    <path d="M0,20.6577142 L0.000240901534,13.8076006 C-0.0290373032,8.90341163 2.61227056,4.35643886 6.92920936,1.87948297 C11.2461482,-0.597472927 16.5828722,-0.628103409 20.9290891,1.79912973 C25.275306,4.22636286 27.970722,8.74270515 28,13.6468941 L28,20.6577142"/>
    <path d="M2.34602842e-15 16.8793244C1.17301421e-15 15.2891174 1.27128641 14 2.83949767 14L4.62243806 14 4.62243806 24.7137652 2.70742801 24.7137652C1.21215681 24.7137652 0 23.4846067 0 21.9683628L2.34602842e-15 16.8793244zM24.6508707 24.7148798L23 24.7148798 23 14.0011147 24.6508707 14.0011147C25.4218936 13.9795416 26.1693441 14.2718611 26.7264061 14.812833 27.2834681 15.3538049 27.6037729 16.0983999 27.6158346 16.880439L27.6158346 21.7685944C27.6178178 22.5611243 27.304131 23.3208894 26.7459111 23.8755926 26.1876912 24.4302959 25.4322381 24.7329355 24.6508707 24.7148798z"/>
  </g>
</svg>
