<svg xmlns="http://www.w3.org/2000/svg" width="24" height="17" viewBox="0 0 24 17">
  <path d="M23.1333333 9.76904762L.958333333 9.76904762C.46547619 9.76904762.0654761905 9.36904762.0654761905 8.87619048.0654761905 8.38333333.46547619 7.98333333.958333333 7.98333333L23.1321429 7.98333333C23.625 7.98333333 24.025 8.38333333 24.025 8.87619048 24.025 9.36904762 23.6261905 9.76904762 23.1333333 9.76904762zM23.1333333 2.58333333L.958333333 2.58333333C.46547619 2.58333333.0654761905 2.18333333.0654761905 1.69047619.0654761905 1.19761905.46547619.797619048.958333333.797619048L23.1321429.797619048C23.625.797619048 24.025 1.19761905 24.025 1.69047619 24.025 2.18333333 23.6261905 2.58333333 23.1333333 2.58333333zM23.1333333 16.9690476L.958333333 16.9690476C.46547619 16.9690476.0654761905 16.5690476.0654761905 16.0761905.0654761905 15.5833333.46547619 15.1833333.958333333 15.1833333L23.1321429 15.1833333C23.625 15.1833333 24.025 15.5833333 24.025 16.0761905 24.025 16.5690476 23.6261905 16.9690476 23.1333333 16.9690476z"/>
</svg>
