<svg xmlns="http://www.w3.org/2000/svg" width="36" height="25" viewBox="0 0 36 25">
  <path fill="#9B9B9B" d="M25.2007806,13.4244092 L33.8417173,13.4244092 C34.2351012,13.4244092 34.6277537,12.9938476 34.6277537,12.5000013 C34.6277537,11.9390868 34.2403629,11.5010202 33.8417173,11.5010202 L25.2007806,11.5010202 C24.7654549,11.5010202 24.4147441,11.9096264 24.4147441,12.5000013 C24.4147441,13.0227315 24.770282,13.4244092 25.2007806,13.4244092 Z M25.2007806,14.8568151 C23.9871009,14.8568151 23.0424978,13.7896263 23.0424978,12.5000013 C23.0424978,11.1514725 23.9719258,10.0686142 25.2007806,10.0686142 L33.8417173,10.0686142 C35.023849,10.0686142 36,11.1724586 36,12.5000013 C36,13.7695924 35.0085025,14.8568151 33.8417173,14.8568151 L25.2007806,14.8568151 Z M15.8737207,2.07744908 L9.13918969,6.90097529 L9.08536068,6.93582811 C8.60239372,7.21717575 8.34037345,7.32491975 7.9189072,7.32491975 L1.37224631,7.32491975 L1.37224631,17.6750828 L7.9189072,17.6750828 C8.34425645,17.6750828 8.77604676,17.7904194 9.05966083,18.0590755 L15.8737207,22.9248693 L15.8737207,2.07744908 Z M7.9189072,19.1074888 L0.686123157,19.1074888 C0.307187801,19.1074888 0,18.7868338 0,18.3912858 L0,6.60871678 C0,6.21316881 0.307187801,5.89251382 0.686123157,5.89251382 L7.9189072,5.89251382 C8.02718818,5.89251382 8.12494989,5.85376335 8.38936638,5.70084832 L16.1716516,0.126880886 C16.626946,-0.199218239 17.245967,0.141057715 17.245967,0.717432276 L17.245967,24.2825703 C17.245967,24.858487 16.6278186,25.1988629 16.1724474,24.8736908 L8.23558701,19.206126 C8.19573239,19.1776665 8.15888289,19.144906 8.12564313,19.1083981 C8.07138959,19.1186714 7.98980542,19.1074888 7.9189072,19.1074888 Z"/>
</svg>
