<svg xmlns="http://www.w3.org/2000/svg" width="36" height="29" viewBox="0 0 36 29">
  <path fill="#9B9B9B" d="M34.2217778,12.4214565 L6.51377778,12.4214565 L15.9235556,3.02872544 C16.5929822,2.33159626 16.5812782,1.22817611 15.8972143,0.545351483 C15.2131504,-0.137473148 14.1077277,-0.14915596 13.4093333,0.519057971 L0.964888889,12.9409581 C0.270753798,13.6338 0.270554835,14.7570952 0.964444444,15.450182 L13.4088889,27.8720821 C13.7420127,28.205464 14.1945037,28.3925826 14.6662222,28.3920274 C15.3854401,28.3924872 16.0340437,27.960233 16.3093387,27.2969917 C16.5846338,26.6337504 16.4323498,25.8702709 15.9235556,25.3628583 L6.51333333,15.9705709 L34.2217778,15.9705709 C35.2036173,15.9705709 35.9995556,15.1760745 35.9995556,14.1960137 C35.9995556,13.2159528 35.2036173,12.4214565 34.2217778,12.4214565 Z" transform="rotate(-180 18 14.5)"/>
</svg>
