<svg xmlns="http://www.w3.org/2000/svg" width="38" height="26" viewBox="0 0 38 26">
  <path fill="#9B9B9B" d="M15.076087,26 C14.0434783,26 13.7956522,25.0774194 13.2586957,13.2935484 C13.0934783,9.72903226 12.8869565,5.15806452 12.5565217,2.72580645 C12.35,4.40322581 12.1847826,7.08709677 12.0608696,9.22580645 C11.6065217,17.2774194 11.3586957,19.2903226 10.1195652,19.2903226 C8.79782609,19.2903226 8.50869565,17.3612903 8.21956522,15.3483871 C8.09565217,14.4258065 7.88913043,12.916129 7.6,12.5806452 C7.31086957,12.6645161 7.06304348,13.5032258 6.89782609,14.0903226 C6.60869565,15.1387097 6.27826087,16.3548387 5.16304348,16.3548387 C4.25434783,16.3548387 3.84130435,15.8516129 3.59347826,15.5580645 C3.34565217,15.2645161 3.22173913,15.0967742 2.68478261,15.0967742 L0.619565217,15.0967742 C0.289130435,15.0967742 0,14.8032258 0,14.4677419 C0,14.1322581 0.289130435,13.8387097 0.619565217,13.8387097 L2.68478261,13.8387097 C3.8,13.8387097 4.21304348,14.383871 4.50217391,14.7193548 C4.70869565,14.9709677 4.79130435,15.0967742 5.16304348,15.0967742 C5.36956522,15.0129032 5.6173913,14.1741935 5.7,13.7548387 C6.03043478,12.6645161 6.40217391,11.3225806 7.64130435,11.3225806 C8.92173913,11.3225806 9.16956522,13.083871 9.45869565,15.1387097 C9.5826087,15.8935484 9.74782609,17.2354839 9.99565217,17.7806452 C10.4086957,16.4387097 10.6565217,12.0774194 10.8217391,9.1 C11.2347826,1.71935484 11.4413043,0 12.5565217,0 C13.6304348,0 13.8782609,1.0483871 14.4565217,13.2096774 C14.6217391,16.4806452 14.8282609,20.6322581 15.076087,23.0225806 C15.323913,21.0935484 15.4891304,18.0741935 15.6130435,15.683871 C16.1913043,6.41612903 16.4391304,5.03225806 17.5543478,5.03225806 C18.7108696,5.03225806 18.9173913,6.91935484 19.2891304,12.3709677 C19.4543478,14.6354839 19.7021739,17.9064516 20.073913,19.0387097 C20.3217391,18.3258065 20.4869565,16.6483871 20.6108696,15.5580645 C20.9,12.7064516 21.1065217,10.483871 22.5108696,10.483871 C23.873913,10.483871 24.0804348,12.2032258 24.2869565,13.8387097 C24.4108696,14.7193548 24.576087,16.3548387 24.9891304,16.3548387 C25.4021739,16.3548387 25.5673913,15.516129 25.7326087,14.4258065 C25.9391304,13.2096774 26.1869565,11.7419355 27.4673913,11.7419355 C28.7478261,11.7419355 29.1195652,13 29.3673913,13.9225806 C29.5326087,14.4258065 29.6978261,15.0967742 29.9456522,15.0967742 C30.3173913,15.0967742 30.4826087,14.8451613 30.8130435,14.2580645 C31.1021739,13.7129032 31.5152174,13 32.423913,13 C33.1673913,13 33.5391304,13.2935484 33.8282609,13.5032258 C34.1173913,13.7129032 34.323913,13.8387097 34.9021739,13.8387097 L37.3804348,13.8387097 C37.7108696,13.8387097 38,14.1322581 38,14.4677419 C38,14.8032258 37.7108696,15.0967742 37.3804348,15.0967742 L34.9021739,15.0967742 C33.9108696,15.0967742 33.4565217,14.7612903 33.126087,14.5096774 C32.8782609,14.3419355 32.7543478,14.2580645 32.423913,14.2580645 C32.2586957,14.2580645 32.1347826,14.4677419 31.8869565,14.8870968 C31.5565217,15.4741935 31.0608696,16.3548387 29.9456522,16.3548387 C28.7891304,16.3548387 28.4173913,15.1387097 28.1695652,14.3 C27.9217391,13.4193548 27.7565217,13 27.4673913,13 C27.2195652,13 27.0543478,14.0903226 26.9717391,14.6354839 C26.7652174,15.8935484 26.476087,17.6129032 24.9891304,17.6129032 C23.5021739,17.6129032 23.2543478,15.683871 23.0478261,14.0064516 C22.9652174,13.2935484 22.8,12.0354839 22.5521739,11.783871 C22.1804348,12.2451613 21.973913,14.383871 21.85,15.683871 C21.5608696,18.4935484 21.3543478,20.5483871 20.0326087,20.5483871 C18.7521739,20.5483871 18.5043478,18.4516129 18.05,12.4548387 C17.926087,10.7774194 17.7608696,8.63870968 17.5543478,7.33870968 C17.2652174,9.22580645 17.0586957,12.916129 16.8521739,15.7677419 C16.3565217,24.6580645 16.1086957,26 15.076087,26 Z"/>
</svg>
