<svg xmlns="http://www.w3.org/2000/svg" width="31" height="29" viewBox="0 0 31 29">
  <g fill="none" fill-rule="evenodd" stroke="#9B9B9B" stroke-linecap="round" stroke-linejoin="round" stroke-width="1.5" transform="rotate(-90 14.5 13.5)">
    <polygon points="26.813 22.438 18.063 22.438 18.063 13.688 26.813 13.688"/>
    <polygon points="25.354 28.271 19.521 28.271 19.521 22.438 25.354 22.438"/>
    <path d="M22.4375,13.6875 L22.4375,4.9375 C22.4375,2.52125422 20.4787458,0.5625 18.0625,0.5625 C15.6462542,0.5625 13.6875,2.52125422 13.6875,4.9375 L13.6875,22.4375 C13.6875,25.659161 11.0758277,28.2708333 7.85416667,28.2708333 C4.63250563,28.2708333 2.02083333,25.659161 2.02083333,22.4375 L2.02083333,12.2291667"/>
    <polyline points=".563 9.313 .563 12.229 3.479 12.229 3.479 9.313"/>
  </g>
</svg>
