<svg xmlns="http://www.w3.org/2000/svg" viewBox="0 0 175.75 53.88"><defs><style>.cls-1{fill:#0058a0;}.cls-2{fill:#faa61a;}</style></defs><title>Visa</title><g id="Layer_2" data-name="Layer 2"><g id="Layer_1-2" data-name="Layer 1"><polygon class="cls-1" points="61.91 53.11 70.81 0.91 85.04 0.91 76.14 53.11 61.91 53.11"/><path class="cls-1" d="M127.74,2.19A36.67,36.67,0,0,0,115,0c-14.06,0-24,7.08-24,17.23-.08,7.5,7.07,11.68,12.47,14.18s7.4,4.19,7.38,6.48c0,3.49-4.43,5.09-8.52,5.09a29.81,29.81,0,0,1-13.39-2.74l-1.83-.83-2,11.69c3.32,1.46,9.47,2.72,15.85,2.78,15,0,24.67-7,24.78-17.83,0-5.94-3.74-10.46-12-14.18-5-2.42-8-4-8-6.48,0-2.17,2.58-4.49,8.15-4.49a26.44,26.44,0,0,1,10.65,2l1.28.61,1.92-11.32"/><path class="cls-1" d="M164.23,1h-11c-3.41,0-6,.93-7.45,4.33L124.65,53.13h14.94s2.45-6.44,3-7.85l18.22,0c.43,1.83,1.73,7.83,1.73,7.83h13.21L164.23,1M146.69,34.6c1.17-3,5.66-14.59,5.66-14.59s1.17-3,1.89-5l1,4.5,3.3,15.07Z"/><path class="cls-1" d="M50,1,36.05,36.54l-1.49-7.23C32,21,23.89,11.93,14.86,7.41L27.6,53.07l15,0L65.05,1H50"/><path class="cls-2" d="M23.13.91H.18L0,2C17.85,6.32,29.66,16.76,34.56,29.31l-5-24C28.71,2,26.22,1,23.13.91"/></g></g></svg>